<?xml version="1.0" encoding="iso-8859-1"?>
<!-- Uploaded to: SVG Repo, www.svgrepo.com, Generator: SVG Repo Mixer Tools -->
<svg fill="#000000" version="1.1" id="Layer_1" xmlns="http://www.w3.org/2000/svg" xmlns:xlink="http://www.w3.org/1999/xlink" 
	 viewBox="0 0 512 512" xml:space="preserve">
<g>
	<g>
		<path d="M171.649,371.28V202.578H247.7L123.85,39.617L0,202.578h76.051v264.3h191.196V371.28H171.649z M250.377,450.008H92.921
			v-264.3H34.01l89.84-118.21l89.84,118.21h-58.911V388.15h95.598V450.008z"/>
	</g>
</g>
<g>
	<g>
		
			<rect x="72.111" y="126.656" transform="matrix(0.6139 -0.7894 0.7894 0.6139 -66.4185 134.3783)" width="64.114" height="16.869"/>
	</g>
</g>
<g>
	<g>
		<path d="M435.949,309.422v-264.3H244.753v95.598h95.598v168.702H264.3l123.85,162.961L512,309.422H435.949z M298.311,326.293
			h58.911V123.85h-95.598V61.992h157.455v264.3h58.911l-89.84,118.21L298.311,326.293z"/>
	</g>
</g>
<g>
	<g>
		
			<rect x="375.767" y="368.431" transform="matrix(0.6139 -0.7894 0.7894 0.6139 -140.0355 467.4093)" width="64.114" height="16.869"/>
	</g>
</g>
</svg>